<svg width="104" height="65" viewBox="0 0 104 65" fill="none" xmlns="http://www.w3.org/2000/svg">
<path d="M52.7078 38.0123H26.4685C22.8879 38.0123 19.9728 35.0972 19.9728 31.5166C19.9728 30.4027 20.2592 29.3007 20.7983 28.333L36.6672 0H29.0537L15.0018 25.092C14.7115 25.6114 14.4587 26.1486 14.2415 26.6996V25.2362C14.2415 17.4805 7.93343 11.1744 0.179722 11.1744H0V17.8221H0.179722C4.27185 17.8221 7.59966 21.146 7.59966 25.2362V55.1748H14.2415V36.3237C16.1671 41.1979 20.9208 44.6581 26.4704 44.6581H46.068V52.791H52.7098V38.0123H52.7078Z" fill="#F6EFD1"/>
<path d="M72.3077 20.3403H52.7102V12.2804H46.0684V20.3403V26.988V27.0591L72.3077 26.988C75.8883 26.988 78.8034 29.9031 78.8034 33.4837C78.8034 34.5976 78.517 35.6996 77.9779 36.6674L62.107 65.0003H69.7205L83.7724 39.9083C84.8665 37.955 85.4491 35.7352 85.4491 33.4837C85.4491 26.2395 79.5499 20.3403 72.3058 20.3403H72.3077Z" fill="#F6EFD1"/>
<path d="M91.2227 43.7714V39.4975C91.2227 39.3988 91.272 39.3474 91.3728 39.3474H93.1285C93.4978 39.3474 93.7862 39.4481 93.9916 39.6496C94.197 39.851 94.3016 40.1374 94.3016 40.5067V42.7602C94.3016 43.1295 94.1989 43.4159 93.9916 43.6173C93.7842 43.8188 93.4978 43.9195 93.1285 43.9195H91.3728C91.274 43.9195 91.2227 43.8701 91.2227 43.7694V43.7714ZM92.2042 43.1374H92.9784C93.1305 43.1374 93.2371 43.1058 93.3023 43.0406C93.3655 42.9774 93.3991 42.8688 93.3991 42.7167V40.5482C93.3991 40.3961 93.3675 40.2895 93.3023 40.2243C93.2391 40.1611 93.1305 40.1275 92.9784 40.1275H92.2042C92.1529 40.1275 92.1252 40.1532 92.1252 40.2065V43.0584C92.1252 43.1097 92.1509 43.1374 92.2042 43.1374Z" fill="#F6EFD1"/>
<path d="M96.7327 39.4975V43.7714C96.7327 43.8701 96.6833 43.9214 96.5826 43.9214H95.9782C95.8795 43.9214 95.8281 43.8721 95.8281 43.7714V39.4975C95.8281 39.3988 95.8775 39.3474 95.9782 39.3474H96.5826C96.6813 39.3474 96.7327 39.3968 96.7327 39.4975Z" fill="#F6EFD1"/>
<path d="M100.189 43.9195H99.4348C99.0596 43.9195 98.7713 43.8207 98.5678 43.6213C98.3644 43.4218 98.2617 43.1354 98.2617 42.7602V40.5067C98.2617 40.1315 98.3644 39.8451 98.5678 39.6456C98.7713 39.4462 99.0616 39.3474 99.4348 39.3474H100.189C100.559 39.3474 100.845 39.4481 101.05 39.6496C101.254 39.851 101.356 40.1374 101.356 40.5067V40.72C101.356 40.8247 101.307 40.876 101.206 40.876H100.602C100.503 40.876 100.452 40.8247 100.452 40.72V40.5502C100.452 40.3981 100.42 40.2914 100.359 40.2263C100.298 40.1631 100.191 40.1295 100.039 40.1295H99.577C99.4309 40.1295 99.3242 40.1611 99.2611 40.2263C99.1979 40.2914 99.1643 40.3981 99.1643 40.5502V42.7187C99.1643 42.8708 99.1959 42.9774 99.2611 43.0426C99.3262 43.1078 99.4309 43.1394 99.577 43.1394H100.039C100.191 43.1394 100.298 43.1078 100.359 43.0426C100.42 42.9794 100.452 42.8708 100.452 42.7187V42.2704C100.452 42.219 100.426 42.1914 100.373 42.1914H99.9464C99.8476 42.1914 99.7963 42.142 99.7963 42.0413V41.5574C99.7963 41.4587 99.8456 41.4073 99.9464 41.4073H101.191C101.299 41.4073 101.355 41.4626 101.355 41.5712V42.7582C101.355 43.1275 101.252 43.4139 101.048 43.6153C100.845 43.8168 100.559 43.9175 100.187 43.9175L100.189 43.9195Z" fill="#F6EFD1"/>
<path d="M103.787 39.4975V43.7714C103.787 43.8701 103.738 43.9214 103.637 43.9214H103.033C102.934 43.9214 102.883 43.8721 102.883 43.7714V39.4975C102.883 39.3988 102.932 39.3474 103.033 39.3474H103.637C103.736 39.3474 103.787 39.3968 103.787 39.4975Z" fill="#F6EFD1"/>
<path d="M92.637 50.8674H92.0406C91.9359 50.8674 91.8845 50.818 91.8845 50.7173V47.1544C91.8845 47.1031 91.8589 47.0754 91.8055 47.0754H90.9958C90.8971 47.0754 90.8457 47.0261 90.8457 46.9253V46.4415C90.8457 46.3427 90.8951 46.2914 90.9958 46.2914H93.6837C93.7825 46.2914 93.8338 46.3408 93.8338 46.4415V46.9253C93.8338 47.0241 93.7844 47.0754 93.6837 47.0754H92.874C92.8167 47.0754 92.7891 47.1011 92.7891 47.1544V50.7173C92.7891 50.816 92.7397 50.8674 92.639 50.8674H92.637Z" fill="#F6EFD1"/>
<path d="M95.4904 50.8674H94.807C94.7221 50.8674 94.6925 50.8181 94.7221 50.7173L95.8459 46.4435C95.8794 46.3447 95.9505 46.2934 96.0592 46.2934H97.0052C97.1237 46.2934 97.1948 46.3428 97.2185 46.4435L98.3422 50.7173C98.3699 50.8161 98.3422 50.8674 98.2573 50.8674H97.574C97.5226 50.8674 97.4871 50.8576 97.4673 50.8358C97.4476 50.8141 97.4337 50.7746 97.4239 50.7193L97.2244 49.9372H95.838L95.6385 50.7193C95.6286 50.7766 95.6128 50.8161 95.5931 50.8358C95.5713 50.8576 95.5378 50.8674 95.4904 50.8674ZM96.5233 47.1565L96.0118 49.2104H97.0644L96.5529 47.1565H96.5253H96.5233Z" fill="#F6EFD1"/>
<path d="M102.102 50.8674H99.7634C99.6646 50.8674 99.6133 50.8181 99.6133 50.7173V46.4435C99.6133 46.3447 99.6627 46.2934 99.7634 46.2934H100.368C100.466 46.2934 100.518 46.3428 100.518 46.4435V49.9984C100.518 50.0498 100.545 50.0774 100.603 50.0774H102.104C102.199 50.0774 102.246 50.1288 102.246 50.2335V50.7173C102.246 50.8161 102.199 50.8674 102.104 50.8674H102.102Z" fill="#F6EFD1"/>
</svg>
