<svg width="1082" height="682" viewBox="0 0 1082 682" fill="none" xmlns="http://www.w3.org/2000/svg">
<g opacity="0.2">
<path d="M382.556 10.0473L221.323 298.325C215.846 308.171 212.937 319.384 212.937 330.718C212.937 367.149 242.551 396.809 278.927 396.809H545.494V547.177H478.019V464.427H278.927C222.567 464.427 174.254 429.222 154.692 379.628V571.431H87.2172V266.817C87.2172 225.181 53.4098 191.381 11.8376 191.381H10.0118V123.743H11.8376C90.6281 123.743 154.692 187.925 154.692 266.817V281.707C156.899 276.1 305.17 10.0272 305.17 10.0272H382.516M399.67 0H299.311L296.442 5.14423C262.775 65.5487 195.361 186.599 163.199 245.074C152.625 170.905 88.7822 113.716 11.8577 113.716H0V201.449H11.8577C47.8922 201.449 77.2054 230.787 77.2054 266.837V581.499H164.744V417.748C173.833 429.684 184.767 440.193 197.307 448.914C221.384 465.653 249.613 474.515 278.947 474.515H468.007V557.265H555.546V386.802H278.947C248.089 386.802 222.989 361.663 222.989 330.758C222.989 321.133 225.457 311.628 230.111 303.268L391.304 14.9504L399.67 0Z" fill="#1E2F3C"/>
<path d="M545.514 134.996V217.002H744.607C818.201 217.002 878.131 277.025 878.131 350.732C878.131 373.62 872.213 396.226 861.097 416.1L718.343 671.402H640.998L802.23 383.125C807.707 373.278 810.617 362.066 810.617 350.732C810.617 314.301 781.003 284.641 744.627 284.641L478.06 285.364V284.641V217.002V134.996H545.534M555.546 124.949H468.008V217.002V284.641V294.688V295.452H478.06L744.627 294.688C775.465 294.688 800.565 319.827 800.565 350.732C800.565 360.357 798.097 369.862 793.442 378.222L632.23 666.499L623.863 681.45H724.222L727.091 676.306L869.845 421.003C881.823 399.562 888.163 375.268 888.163 350.732C888.163 271.459 823.759 206.955 744.607 206.955H555.546V124.949Z" fill="#1E2F3C"/>
<g clip-path="url(#clip0_4054_2980)">
<path d="M1054.11 440.47L1082.03 478.863L1060.24 521.511H1000.66L984.352 498.864V536.479L963.984 521.381V465.529L984.352 440.522H1054.11V440.47ZM1056.77 466.437H984.352V495.543H1056.77V466.437Z" fill="#1E2F3C"/>
<path d="M1063.18 392.348L1082 418.316H984.352V433.413L963.984 418.316V392.348H1063.21H1063.18Z" fill="#1E2F3C"/>
<path d="M1054.11 291.644L1082.03 329.881L1060.24 372.685H984.506L958.943 325.782L974.296 298.414L990.451 319.66L974.296 346.717H1022.42L1008.31 325.471V291.644H1054.09H1054.11ZM1056.77 317.611H1025.58V346.717H1056.77V317.611Z" fill="#1E2F3C"/>
<path d="M1063.18 246.661L1082 272.628H984.352V287.726L963.984 272.628V246.661H1063.21H1063.18Z" fill="#1E2F3C"/>
<path d="M986.367 207.801L1002.37 223.703H990.761L981.663 214.727L971.944 235.662L958.943 207.801H986.367Z" fill="#1E2F3C"/>
</g>
</g>
<defs>
<clipPath id="clip0_4054_2980">
<rect width="123.057" height="328.652" fill="white" transform="translate(958.943 207.801)"/>
</clipPath>
</defs>
</svg>
