<svg width="179" height="40" viewBox="0 0 179 40" fill="none" xmlns="http://www.w3.org/2000/svg">
<g clip-path="url(#clip0_4029_196)">
<mask id="mask0_4029_196" style="mask-type:luminance" maskUnits="userSpaceOnUse" x="0" y="0" width="179" height="40">
<path d="M178.878 0H0.0117188V40H178.878V0Z" fill="white"/>
</mask>
<g mask="url(#mask0_4029_196)">
<path d="M32.7709 8.372C32.5586 7.596 32.0513 6.896 31.3342 6.35867C27.5809 3.54267 23.1161 1.43467 18.2586 0.181333C17.7872 0.06 17.2999 0 16.8113 0C16.3225 0 15.8352 0.06 15.3639 0.181333C10.5051 1.43467 6.04016 3.54267 2.28691 6.35867C1.5699 6.896 1.06119 7.59733 0.850226 8.372C0.290776 10.4173 0.0117188 12.5013 0.0117188 14.584V25.416C0.0117188 27.5 0.290776 29.584 0.850226 31.628C1.06119 32.404 1.5699 33.104 2.28691 33.6427C6.04016 36.4573 10.5051 38.5667 15.3639 39.8187C15.8352 39.94 16.3225 40 16.8113 40C17.2999 40 17.7886 39.94 18.2586 39.8187C23.1161 38.5667 27.5823 36.4573 31.3355 33.6427C32.0526 33.104 32.5613 32.404 32.7722 31.628C33.3316 29.584 33.6108 27.5 33.6108 25.416V14.584C33.6108 12.5013 33.3316 10.4173 32.7722 8.372M32.3063 20.7107C32.1167 21.4027 31.6693 22.0293 31.0125 22.5227C29.1699 23.904 27.1377 25.1253 24.9719 26.1467C22.8076 27.1707 20.5004 28 18.1157 28.6133C17.6912 28.7213 17.2545 28.7773 16.8113 28.7773C16.3679 28.7773 15.93 28.7227 15.5067 28.6133C13.1221 28 10.8148 27.1693 8.65048 26.1467C6.48478 25.124 4.45394 23.904 2.61003 22.5227C1.95176 22.0307 1.50448 21.4027 1.31621 20.7107C1.1907 20.2453 1.1907 19.756 1.31621 19.2907C1.50448 18.5987 1.95176 17.972 2.61003 17.4787C4.45261 16.0973 6.48478 14.876 8.65048 13.8547C10.8148 12.8307 13.1221 12.0013 15.5067 11.3867C15.93 11.2787 16.3679 11.224 16.8113 11.224C17.2545 11.224 17.6925 11.2787 18.1157 11.3867C20.5004 12.0013 22.8076 12.832 24.9719 13.8547C27.1377 14.8773 29.1699 16.0973 31.0125 17.4787C31.6693 17.9707 32.1167 18.5973 32.3063 19.2907C32.4332 19.756 32.4332 20.2453 32.3063 20.7107Z" fill="white"/>
<path d="M42.4036 10.284C42.6132 10.0747 42.9203 9.96936 43.3223 9.96936H51.2413C52.0251 9.96936 52.714 10.0134 53.3082 10.0987C53.901 10.1854 54.4364 10.3427 54.9145 10.572C55.7557 10.992 56.4205 11.388 56.9093 11.7614C57.3966 12.1334 57.8426 12.6254 58.2445 13.2374C58.7799 14.0587 59.0482 15.1294 59.0482 16.4467V17.1334C59.0482 18.4707 58.8373 19.4934 58.4181 20.1987C57.92 21.04 57.1937 21.8227 56.2363 22.548C55.6435 23.0067 54.9839 23.3707 54.2576 23.6374L59.2219 30.028H54.3711C54.0466 30.028 53.7689 29.9667 53.5392 29.8414C53.3095 29.7174 53.0893 29.5227 52.8797 29.2547L49.1772 24.184H46.9099V30.0294H42.0898V11.2307C42.0898 10.812 42.194 10.496 42.405 10.2854M51.6005 19.9414C51.8194 19.9227 52.0452 19.8654 52.2748 19.7694C52.5993 19.636 52.8583 19.488 53.0492 19.3254C53.2414 19.1627 53.4418 18.976 53.6527 18.7654C53.9585 18.4614 54.112 17.992 54.112 17.3627V16.7894C54.112 16.14 53.901 15.6054 53.4805 15.184C53.3269 15.032 53.1507 14.8934 52.9503 14.7694C52.7501 14.6454 52.5151 14.5254 52.2468 14.4107C51.8835 14.2587 51.3575 14.1814 50.6685 14.1814H46.9086V19.9694H50.6685C51.0704 19.9694 51.3802 19.96 51.6005 19.94" fill="white"/>
<path d="M62.3568 10.2854C62.5677 10.0747 62.8735 9.9707 63.2754 9.9707H69.4172C70.2784 9.9707 70.9434 9.9947 71.412 10.0414C71.8808 10.0894 72.2772 10.18 72.603 10.3134C73.3682 10.6 74.1038 10.9294 74.8129 11.3014C75.5205 11.6734 76.152 12.0707 76.7075 12.4907C77.5486 13.1027 78.2176 13.8614 78.7156 14.7694C79.2136 15.6774 79.5194 16.656 79.6343 17.7054C79.7304 18.528 79.7784 19.292 79.7784 19.9987C79.7784 20.7054 79.7304 21.4694 79.6343 22.2907C79.5194 23.3414 79.2136 24.3214 78.7156 25.228C78.2176 26.136 77.5486 26.904 76.7075 27.536C75.7501 28.2427 74.431 28.9214 72.7473 29.5694C71.9636 29.876 70.8539 30.028 69.4186 30.028H62.043V11.2307C62.043 10.8107 62.1485 10.496 62.3581 10.2854M70.7365 25.616C71.2919 25.4067 71.7886 25.1667 72.2293 24.9C72.6685 24.632 73.1279 24.2974 73.6058 23.8974C73.9316 23.592 74.1947 23.248 74.3949 22.8654C74.5965 22.484 74.7154 22.0827 74.7541 21.6627C74.8116 21.0707 74.8409 20.5254 74.8409 20.028C74.8409 19.5307 74.8116 18.9974 74.7541 18.424C74.7154 17.984 74.5911 17.5547 74.3815 17.1347C74.1706 16.7147 73.9116 16.3707 73.6058 16.1027C73.1292 15.7214 72.6778 15.4054 72.2587 15.1574C71.8367 14.9094 71.34 14.66 70.7659 14.412C70.3639 14.2587 69.9434 14.1827 69.5041 14.1827H66.9218V25.816H69.5041C69.906 25.816 70.3172 25.7507 70.7378 25.616" fill="white"/>
<path d="M88.1396 28.4854C86.7843 27.3894 86.1074 25.8894 86.1074 23.9827H87.7684C88.0341 23.9827 88.2303 24.04 88.3545 24.1534C88.4786 24.268 88.5788 24.4774 88.6563 24.7827C88.8085 25.812 89.3278 26.608 90.2157 27.1694C91.1037 27.732 92.3294 28.0134 93.8943 28.0134H94.6099C96.2695 28.0134 97.5434 27.6787 98.4313 27.012C99.3192 26.3454 99.7624 25.468 99.7624 24.3827V23.9254C99.7624 23.1067 99.4807 22.4774 98.9186 22.0387C98.3552 21.6 97.5006 21.2947 96.3564 21.124L91.547 20.38C90.0582 20.1507 88.8699 19.656 87.982 18.8934C87.0941 18.132 86.6508 17.0747 86.6508 15.72V15.1774C86.6508 14.2054 86.9219 13.3147 87.4666 12.5054C88.01 11.696 88.8298 11.0467 89.9287 10.5614C91.025 10.076 92.3361 9.83203 93.8636 9.83203H94.5218C96.9839 9.83203 98.8012 10.3614 99.9747 11.4187C101.147 12.476 101.735 13.872 101.735 15.6054H100.046C99.7785 15.6054 99.5822 15.548 99.458 15.4347C99.3339 15.3214 99.2524 15.148 99.215 14.92C99.0802 14.0054 98.6462 13.2854 97.9119 12.7614C97.1762 12.2374 96.0559 11.976 94.5485 11.976H93.8329C92.3067 11.976 91.1424 12.2574 90.3413 12.8187C89.5402 13.3814 89.1396 14.1387 89.1396 15.092V15.548C89.1396 16.3107 89.3826 16.9067 89.8687 17.3347C90.356 17.764 91.085 18.0534 92.0584 18.2054L97.0107 18.9494C98.6128 19.1974 99.8867 19.6974 100.832 20.4494C101.776 21.2027 102.249 22.2934 102.249 23.7227V24.2947C102.249 25.4947 101.915 26.5334 101.246 27.4094C100.578 28.2854 99.6677 28.9587 98.5128 29.4254C97.3578 29.892 96.0466 30.1254 94.5779 30.1254H93.8903C91.4094 30.1254 89.4908 29.5774 88.1369 28.4814" fill="white"/>
<path d="M106.889 28.8279C105.839 27.9613 105.314 26.5173 105.314 24.4973V10.4053H106.861C107.148 10.4053 107.367 10.4813 107.519 10.6346C107.671 10.7879 107.748 11.0066 107.748 11.2919V14.2653H113.016V16.3519H107.748V24.3853C107.748 25.6426 108.04 26.5533 108.62 27.1146C109.202 27.6773 110.094 27.9573 111.297 27.9573H112.213C112.538 27.9386 112.781 28.0013 112.942 28.1439C113.104 28.2866 113.187 28.5013 113.187 28.7866V30.0159C112.631 30.0919 112.004 30.1306 111.297 30.1306C109.408 30.1306 107.938 29.6959 106.89 28.8293" fill="white"/>
<path d="M117.293 29.6C116.442 29.248 115.785 28.748 115.317 28.1C114.849 27.452 114.617 26.6813 114.617 25.784V25.4133C114.617 24.0787 115.118 23.0413 116.119 22.2973C117.122 21.5547 118.624 21.1827 120.628 21.1827H125.295V19.496C125.295 18.3147 124.998 17.4573 124.407 16.9227C123.815 16.3893 122.881 16.1227 121.602 16.1227H121.029C119.999 16.1227 119.182 16.2947 118.581 16.6373C117.981 16.98 117.623 17.476 117.508 18.124C117.469 18.3907 117.398 18.568 117.294 18.652C117.189 18.7387 116.994 18.7813 116.707 18.7813H115.103C115.103 17.924 115.317 17.1427 115.748 16.4373C116.178 15.732 116.84 15.1707 117.738 14.7507C118.635 14.332 119.751 14.1213 121.086 14.1213H121.602C123.719 14.1213 125.269 14.584 126.252 15.508C127.235 16.432 127.726 17.7893 127.726 19.5813V29.9853H126.352C126.085 29.9853 125.87 29.9093 125.707 29.756C125.546 29.604 125.464 29.3853 125.464 29.0987V28.528C124.357 29.08 123.412 29.4853 122.631 29.7427C121.849 30 121.114 30.128 120.427 30.128H120.169C119.101 30.128 118.141 29.952 117.293 29.5987M125.293 26.956V22.9827H120.77C119.453 22.9827 118.513 23.196 117.951 23.6267C117.388 24.056 117.106 24.6507 117.106 25.4133V25.7C117.106 26.5 117.421 27.1147 118.051 27.544C118.68 27.972 119.54 28.1867 120.627 28.1867H121.114C122.068 28.1867 123.462 27.7773 125.293 26.9573" fill="white"/>
<path d="M132.879 28.8279C131.829 27.9613 131.305 26.5173 131.305 24.4973V10.4053H132.851C133.138 10.4053 133.357 10.4813 133.509 10.6346C133.661 10.7879 133.739 11.0066 133.739 11.2919V14.2653H139.006V16.3519H133.739V24.3853C133.739 25.6426 134.03 26.5533 134.611 27.1146C135.193 27.6773 136.084 27.9573 137.288 27.9573H138.204C138.527 27.9386 138.771 28.0013 138.932 28.1439C139.094 28.2866 139.177 28.5013 139.177 28.7866V30.0159C138.621 30.0919 137.994 30.1306 137.288 30.1306C135.399 30.1306 133.928 29.6959 132.88 28.8293" fill="white"/>
<path d="M141.665 11.0627C141.398 10.796 141.266 10.3867 141.266 9.83336C141.266 9.22402 141.394 8.78136 141.652 8.50402C141.909 8.22802 142.334 8.08936 142.925 8.08936C143.515 8.08936 143.913 8.21869 144.171 8.47602C144.428 8.73336 144.557 9.15736 144.557 9.74669C144.557 10.336 144.428 10.772 144.171 11.048C143.913 11.324 143.488 11.4627 142.897 11.4627C142.344 11.4627 141.934 11.3294 141.666 11.0627M141.722 14.264H143.269C143.557 14.264 143.774 14.34 143.928 14.4934C144.08 14.6454 144.158 14.864 144.158 15.1507V29.9867H141.724V14.2654L141.722 14.264Z" fill="white"/>
<path d="M150.611 29.2707C149.514 28.7 148.664 27.88 148.063 26.812C147.461 25.7453 147.16 24.468 147.16 22.9827V21.268C147.16 19.8387 147.466 18.5813 148.077 17.4947C148.687 16.408 149.542 15.5747 150.639 14.992C151.737 14.412 153.01 14.1213 154.46 14.1213H155.033C156.502 14.1213 157.781 14.4027 158.867 14.9653C159.956 15.5267 160.795 16.3467 161.388 17.4227C161.978 18.5 162.275 19.7813 162.275 21.268V22.9827C162.275 24.412 161.974 25.6653 161.373 26.7413C160.772 27.8187 159.923 28.652 158.825 29.2427C157.726 29.8347 156.463 30.1293 155.033 30.1293H154.46C152.991 30.1293 151.707 29.8427 150.611 29.272M158.499 26.6693C159.356 25.7933 159.786 24.564 159.786 22.9827V21.2387C159.786 19.6573 159.358 18.432 158.499 17.5653C157.64 16.6987 156.484 16.264 155.035 16.264H154.462C152.992 16.264 151.824 16.6987 150.954 17.5653C150.086 18.432 149.653 19.6573 149.653 21.2387V22.9827C149.653 24.564 150.086 25.7933 150.954 26.6693C151.824 27.5453 152.991 27.984 154.462 27.984H155.035C156.484 27.984 157.64 27.5453 158.499 26.6693Z" fill="white"/>
<path d="M165.338 14.264H166.742C167.028 14.264 167.247 14.34 167.399 14.4933C167.551 14.6453 167.629 14.864 167.629 15.1507V15.9213C168.87 15.312 169.948 14.86 170.863 14.564C171.779 14.2693 172.553 14.1213 173.18 14.1213H173.382C175.252 14.1213 176.635 14.564 177.533 15.4493C178.429 16.336 178.878 17.656 178.878 19.408V29.9853H176.444V19.8093C176.444 18.5693 176.149 17.6653 175.558 17.0933C174.965 16.5227 174.03 16.236 172.752 16.236H172.408C171.797 16.236 171.134 16.336 170.418 16.536C169.703 16.736 168.819 17.0467 167.77 17.4653V29.9867H165.338V14.2653V14.264Z" fill="white"/>
</g>
</g>
<defs>
<clipPath id="clip0_4029_196">
<rect width="179" height="40" fill="white"/>
</clipPath>
</defs>
</svg>
